<svg xmlns="http://www.w3.org/2000/svg" fill="none" viewBox="0 0 200 200" height="400" width="400"><g id="Woman-In-Crypto--cryptocurrency-crypto-web 3.0-metaverse-bitcoin-ethereum"><g id="Group"><path id="Vector" fill="#ffffff" d="M130.172 118.219C131.852 120.092 133.189 122.246 134.122 124.582C136.368 129.436 138.742 134.371 140.663 139.362C138.628 143.56 135.415 147.076 131.417 149.48C133.308 156.969 132.827 164.86 130.041 172.064C100.941 176.197 87.819 174.885 73.21 175.264C72.581 175.281 72.425 175.1 72.381 174.547C72.0243 170.143 71.7337 165.735 71.509 161.322C76.061 158.691 78.772 153.497 80.109 148.413C81.446 143.329 81.425 138 81.394 132.744C82.511 132.275 83.757 132.886 84.843 133.423C89.7592 135.784 95.1913 136.867 100.637 136.573C106.083 136.279 111.367 134.617 116 131.74C118.316 130.267 120.579 128.39 122.735 126.691C125.777 124.416 128.31 121.53 130.172 118.219V118.219Z"></path><path id="Vector_2" fill="#ffffff" d="M55.065 194.657H129.024C127.233 172.857 127.779 173.012 126.146 172.834C123.405 172.534 76.983 175.6 72.107 175.016L71.5 164.654L50.575 169.1L51.944 192.285C53.867 194.736 53.153 194.242 55.065 194.657Z"></path><path id="Vector_3" fill="#ffffff" d="M140.374 139.027C151.958 164.056 152.2 163.892 151.974 166.46C151.712 169.46 149.061 172.329 144.474 172.865C143.695 173.023 142.889 172.983 142.129 172.749C141.37 172.515 140.681 172.094 140.126 171.525C131.726 164.718 132.134 165.089 131.967 164.817C131.506 164.069 132.387 158.967 132.367 156.117C132.353 154.205 131.334 152.017 131.484 150.191C131.632 148.382 133.868 148.429 137.792 143.151C138.191 142.615 140.645 139.614 140.374 139.027Z"></path><path id="Vector_4" fill="#ffffff" d="M80.1 114.332C81.874 113.384 82.652 113.492 84.63 114.176C88.2654 115.574 92.0788 116.456 95.959 116.796C101.843 117.082 107.629 115.21 112.231 111.532C114.031 110.079 114.682 109.544 117.067 109.863C124.283 110.827 129.927 116.279 130.113 117.957C130.368 120.257 117.826 135.152 101.797 136.838C97.519 137.287 95.314 136.738 91.679 135.65C82.779 132.976 78.021 132.768 76.221 124.11C74.971 118.078 74.793 117.17 80.1 114.332Z"></path><g id="Group_2"><path id="Vector_5" fill="#000000" d="M83.9 136.8C88.363 136.662 90.668 137.522 90.92 135.211C90.942 135.011 90.659 134.667 90.564 134.79C88.764 137.103 85.536 136.39 85.612 135.572C85.663 135.026 86.069 135.354 86.287 135.385C86.5483 135.454 86.8248 135.436 87.0751 135.334C87.3255 135.233 87.5363 135.053 87.676 134.822C86.5644 134.604 85.4949 134.209 84.508 133.653C84.236 135.064 84.195 136.194 82.851 136.547C82.999 136.659 83.1686 136.739 83.3491 136.783C83.5296 136.826 83.7172 136.832 83.9 136.8V136.8Z"></path><path id="Vector_6" fill="#000000" d="M108.127 148.706C106.802 148.711 105.507 149.107 104.407 149.846C103.307 150.584 102.45 151.632 101.943 152.857C101.437 154.082 101.305 155.429 101.563 156.729C101.82 158.029 102.457 159.223 103.392 160.162C104.328 161.101 105.52 161.742 106.819 162.005C108.118 162.267 109.466 162.14 110.692 161.638C111.919 161.137 112.97 160.283 113.712 159.186C114.455 158.088 114.857 156.795 114.866 155.47C114.868 154.583 114.695 153.705 114.358 152.885C114.02 152.065 113.524 151.32 112.898 150.692C112.272 150.063 111.529 149.565 110.71 149.224C109.891 148.883 109.014 148.707 108.127 148.706ZM112.018 158.334C111.785 158.386 111.571 158.502 111.4 158.67C111.23 158.838 111.11 159.05 111.054 159.282C110.886 159.908 110.52 160.463 110.01 160.862C109.5 161.262 108.873 161.485 108.225 161.497C107.578 161.51 106.943 161.312 106.418 160.933C105.892 160.554 105.504 160.014 105.312 159.395C105.242 159.134 105.105 158.897 104.913 158.707C104.722 158.517 104.484 158.38 104.223 158.312C103.608 158.132 103.068 157.758 102.683 157.247C102.297 156.735 102.087 156.113 102.083 155.473C102.079 154.832 102.282 154.207 102.661 153.691C103.04 153.175 103.576 152.795 104.188 152.607C104.465 152.533 104.716 152.385 104.914 152.178C105.112 151.971 105.25 151.714 105.313 151.435C105.512 150.847 105.89 150.335 106.393 149.971C106.897 149.607 107.501 149.409 108.123 149.405C108.744 149.401 109.351 149.59 109.859 149.947C110.368 150.304 110.753 150.81 110.96 151.396C111.035 151.689 111.185 151.957 111.396 152.173C111.606 152.39 111.87 152.548 112.16 152.631C112.762 152.837 113.283 153.229 113.646 153.752C114.01 154.274 114.198 154.898 114.182 155.535C114.166 156.171 113.947 156.785 113.558 157.289C113.169 157.792 112.63 158.158 112.018 158.334V158.334Z"></path><path id="Vector_7" fill="#000000" d="M131.278 125.581C132.91 125.961 132.378 126.554 129.85 133.559C129.75 133.848 129.701 134.27 129.292 134.27C128.883 134.27 128.845 133.858 128.701 133.576C128.055 132.309 128.635 131.076 128.859 129.856C129.08 128.656 128.906 127.173 130.659 126.732C129.47 126.536 128.256 126.541 127.068 126.747C128.22 127.258 127.841 128.135 127.736 128.916C127.694 129.224 127.73 129.694 127.398 129.762C126.983 129.846 126.986 129.338 126.872 129.069C126.694 128.616 126.543 128.152 126.422 127.681C126.157 126.761 125.938 125.85 127.339 125.501C126.208 125.233 125.028 125.249 123.905 125.548C124.931 126.171 125.081 126.292 126.872 131.603C127.085 132.514 127.039 133.467 126.739 134.354C126.438 135.24 125.895 136.025 125.172 136.619C125.388 136.848 125.053 136.824 131.265 136.795C132.816 136.788 133.296 136.259 133.281 134.578C132.897 134.557 132.839 134.907 132.675 135.122C131.49 136.672 127.531 136.69 127.937 135.387C128.049 135.03 128.313 135.287 128.509 135.332C128.693 135.396 128.888 135.419 129.081 135.4C129.275 135.381 129.462 135.32 129.629 135.221C129.796 135.122 129.94 134.988 130.05 134.828C130.161 134.668 130.235 134.486 130.267 134.294C131.015 132.146 131.878 130.038 132.68 127.908C132.782 127.416 132.986 126.951 133.279 126.542C133.572 126.134 133.947 125.791 134.38 125.536C133.369 125.208 132.279 125.224 131.278 125.581V125.581Z"></path><path id="Vector_8" fill="#000000" d="M122.283 166.618C122.111 166.467 121.905 166.362 121.683 166.31C118.618 166.222 120.365 163.328 118.253 162.742C118.104 162.764 117.961 162.815 117.832 162.893C117.703 162.971 117.592 163.073 117.503 163.195C116.328 164.509 117.369 166.017 115.582 166.072C114.608 166.103 112.308 167.209 114.224 168.457C115.551 169.321 116.634 168.402 116.783 170.133C116.897 171.47 117.932 172.903 118.861 171.885C119.254 171.533 119.503 171.048 119.561 170.524C119.536 170.306 119.561 170.086 119.632 169.878C119.703 169.671 119.819 169.482 119.972 169.325C120.125 169.168 120.312 169.047 120.517 168.971C120.723 168.895 120.943 168.866 121.161 168.885C121.914 168.839 124.021 167.753 122.283 166.618ZM118.233 168.96C118.038 168.964 117.844 168.929 117.662 168.856C117.481 168.784 117.316 168.676 117.177 168.539C117.038 168.402 116.928 168.238 116.853 168.058C116.778 167.878 116.74 167.684 116.741 167.489C116.742 167.294 116.783 167.1 116.859 166.921C116.936 166.742 117.048 166.579 117.189 166.444C117.33 166.308 117.496 166.202 117.678 166.132C117.86 166.062 118.055 166.029 118.25 166.035C118.631 166.047 118.993 166.207 119.258 166.482C119.522 166.757 119.669 167.124 119.667 167.506C119.665 167.887 119.514 168.253 119.246 168.525C118.978 168.796 118.614 168.952 118.233 168.96V168.96Z"></path><path id="Vector_9" fill="#000000" d="M122.54 142.62C121.025 141.408 119.77 142.61 119.627 140.538C119.556 139.5 118.563 137.951 117.587 138.938C116.234 140.303 117.403 141.818 115.716 141.874C114.954 141.9 113.499 142.533 113.478 143.295C113.423 145.295 116.378 143.066 117.238 147.295C117.266 147.474 117.347 147.641 117.469 147.775C117.591 147.909 117.75 148.004 117.925 148.049C118.101 148.094 118.286 148.086 118.458 148.027C118.629 147.968 118.779 147.86 118.89 147.716C120.142 146.471 118.997 144.962 120.79 144.8C122.121 144.676 123.751 143.588 122.54 142.62ZM118.307 144.776C118.11 144.787 117.913 144.758 117.728 144.691C117.543 144.623 117.373 144.519 117.23 144.384C117.086 144.249 116.972 144.086 116.893 143.905C116.815 143.724 116.774 143.529 116.773 143.332C116.772 143.135 116.812 142.94 116.889 142.759C116.966 142.577 117.079 142.413 117.221 142.277C117.364 142.141 117.532 142.035 117.717 141.966C117.901 141.897 118.098 141.866 118.295 141.876C118.667 141.894 119.017 142.054 119.274 142.322C119.531 142.591 119.676 142.948 119.677 143.32C119.679 143.692 119.537 144.051 119.282 144.321C119.027 144.592 118.678 144.755 118.307 144.776V144.776Z"></path><path id="Vector_10" fill="#000000" d="M139.842 138.624C138.433 138.617 139.136 140.79 136.179 142.201C134.302 143.101 135.328 144.38 136.202 144.455C136.424 144.473 136.644 144.51 136.859 144.567C138.474 142.773 140.259 140.728 140.286 138.748C140.152 138.666 139.999 138.623 139.842 138.624V138.624Z"></path><path id="Vector_11" fill="#000000" d="M93.04 144.486C96.454 144.741 94.57 148.17 96.653 148.086C98.629 148.007 96.653 144.986 100.142 144.533C100.438 144.49 100.715 144.36 100.938 144.16C101.161 143.96 101.32 143.698 101.394 143.408C101.344 143.099 101.197 142.815 100.973 142.596C100.75 142.378 100.462 142.237 100.152 142.195C96.8 141.911 98.697 138.673 96.624 138.61C94.685 138.55 96.656 141.635 92.957 142.228C92.6576 142.239 92.3748 142.369 92.1708 142.588C91.9669 142.808 91.8585 143.099 91.8695 143.398C91.8805 143.698 92.01 143.981 92.2295 144.185C92.449 144.389 92.7406 144.497 93.04 144.486ZM96.554 141.886C96.9371 141.876 97.3086 142.018 97.5867 142.282C97.8648 142.546 98.0268 142.909 98.037 143.292C98.0472 143.675 97.9048 144.047 97.6411 144.325C97.3775 144.603 97.0141 144.765 96.631 144.775C96.257 144.771 95.8991 144.622 95.6325 144.36C95.3659 144.098 95.2114 143.742 95.2014 143.369C95.1914 142.995 95.3268 142.632 95.579 142.355C95.8313 142.079 96.1808 141.912 96.554 141.888V141.886Z"></path><path id="Vector_12" fill="#000000" d="M76.043 163.629C72.958 166.674 71.296 165.917 71.515 168.59C72.1741 168.671 72.7813 168.989 73.224 169.484C73.6666 169.979 73.9146 170.618 73.922 171.282C73.9518 171.54 74.0746 171.778 74.2674 171.952C74.4603 172.125 74.7098 172.223 74.9694 172.226C75.2289 172.228 75.4805 172.136 75.6771 171.967C75.8736 171.797 76.0016 171.562 76.037 171.305C76.371 167.882 79.522 169.396 79.781 167.543C79.676 165.617 76.883 167.7 76.043 163.629ZM74.943 168.956C74.5627 168.932 74.2067 168.76 73.9511 168.478C73.6955 168.195 73.5605 167.824 73.5748 167.443C73.5892 167.062 73.7518 166.702 74.0279 166.439C74.3041 166.177 74.6719 166.032 75.053 166.037C75.2477 166.04 75.4398 166.082 75.618 166.16C75.7962 166.239 75.9569 166.352 76.0907 166.494C76.2246 166.635 76.3288 166.802 76.3973 166.984C76.4657 167.166 76.4971 167.36 76.4895 167.555C76.4819 167.749 76.4355 167.94 76.353 168.117C76.2705 168.293 76.1536 168.451 76.0092 168.582C75.8647 168.712 75.6957 168.813 75.5119 168.877C75.3281 168.941 75.1333 168.968 74.939 168.956H74.943Z"></path><path id="Vector_13" fill="#000000" d="M100.348 166.453C96.682 165.97 98.648 162.78 96.648 162.774C94.748 162.774 96.501 165.951 92.868 166.418C92.6004 166.445 92.3526 166.572 92.173 166.772C91.9935 166.972 91.8949 167.232 91.8967 167.501C91.8984 167.77 92.0003 168.029 92.1825 168.227C92.3647 168.425 92.6141 168.548 92.882 168.572C96.315 168.916 94.624 172.005 96.621 172.284C98.671 171.769 96.781 169.112 100.381 168.584C100.647 168.556 100.892 168.429 101.069 168.229C101.246 168.029 101.342 167.77 101.338 167.503C101.334 167.236 101.23 166.981 101.047 166.786C100.864 166.592 100.614 166.473 100.348 166.453V166.453ZM96.607 168.966C96.2293 168.955 95.8705 168.799 95.6061 168.529C95.3417 168.259 95.1923 167.897 95.1893 167.519C95.1863 167.141 95.33 166.777 95.5902 166.503C95.8503 166.229 96.2066 166.067 96.584 166.05C96.7799 166.041 96.9754 166.072 97.1591 166.141C97.3427 166.21 97.5106 166.314 97.6528 166.449C97.795 166.584 97.9085 166.747 97.9866 166.926C98.0646 167.106 98.1057 167.3 98.1072 167.496C98.1088 167.692 98.0708 167.886 97.9956 168.067C97.9203 168.248 97.8094 168.413 97.6694 168.55C97.5293 168.687 97.3631 168.794 97.1806 168.866C96.998 168.938 96.803 168.972 96.607 168.966V168.966Z"></path><path id="Vector_14" fill="#000000" d="M87.334 149.335C86.528 147.647 86.452 150.345 82.574 153.447C82.3859 154.277 82.1266 155.09 81.799 155.876C83.9321 157.031 85.6261 158.855 86.62 161.068C87.42 162.799 87.601 159.149 92.897 155.698C94.73 154.505 90.1 155.138 87.334 149.335ZM91.196 155.876C89.796 157.069 88.257 155.86 88.261 158.01C88.261 158.873 87.496 159.847 86.845 159.829C84.645 158.959 86.779 156.667 83.867 156.385C83.173 156.318 82.346 155.979 82.32 155.147C82.294 154.284 83.151 154.095 83.825 153.861C84.58 153.6 85.602 154.03 85.605 152.493C85.605 151.593 86.753 149.367 87.873 151.156C88.752 152.556 87.896 153.716 89.464 153.773C90.681 153.818 92.38 154.871 91.2 155.876H91.196Z"></path><path id="Vector_15" fill="#000000" d="M130.774 159.116C129.988 160.809 128.757 159.935 128.687 159.151C128.369 155.568 125.097 157.234 125.077 155.423C125.057 153.506 128.428 155.305 128.699 151.748C128.721 151.482 128.839 151.232 129.03 151.045C129.221 150.858 129.473 150.746 129.74 150.729C130.88 150.714 130.62 152.529 132.29 153.739C132.258 153.364 132.216 152.992 132.161 152.621C130.247 150.596 130.174 149.127 129.561 149.087C128.879 149.707 127.549 152.387 123.712 154.923C122.023 156.039 126.568 155.456 129.334 161.239C129.986 162.603 130.197 161.099 132.234 158.884C132.278 158.293 132.315 157.701 132.34 157.109C131.624 157.601 131.077 158.302 130.774 159.116V159.116Z"></path><path id="Vector_16" fill="#000000" d="M106.991 172.492C105.891 174.753 105.429 174.481 106.245 174.451C106.327 174.264 106.459 174.104 106.628 173.989C106.796 173.873 106.994 173.808 107.198 173.799C107.402 173.791 107.604 173.84 107.781 173.941C107.959 174.042 108.104 174.19 108.201 174.37C109.715 174.3 109.323 174.797 107.834 172.49C107.572 172.084 107.273 171.914 106.991 172.492Z"></path><path id="Vector_17" fill="#000000" d="M108.122 153.962C107.743 153.97 107.382 154.125 107.115 154.395C106.848 154.664 106.696 155.026 106.691 155.406C106.686 155.785 106.828 156.151 107.088 156.427C107.348 156.704 107.705 156.868 108.084 156.886C108.28 156.895 108.476 156.865 108.66 156.797C108.845 156.729 109.013 156.625 109.156 156.49C109.299 156.355 109.414 156.193 109.493 156.014C109.572 155.834 109.614 155.64 109.617 155.444C109.619 155.247 109.582 155.052 109.508 154.871C109.433 154.689 109.323 154.524 109.184 154.386C109.044 154.247 108.878 154.139 108.696 154.066C108.514 153.993 108.318 153.958 108.122 153.962V153.962Z"></path><path id="Vector_18" fill="#000000" d="M87.023 153.708C86.829 153.696 86.6344 153.722 86.451 153.787C86.2675 153.851 86.0989 153.952 85.9551 154.083C85.8114 154.214 85.6955 154.372 85.6144 154.549C85.5332 154.725 85.4885 154.917 85.4829 155.111C85.4772 155.305 85.5108 155.499 85.5815 155.68C85.6523 155.861 85.7588 156.026 85.8947 156.165C86.0306 156.304 86.1931 156.414 86.3725 156.489C86.5519 156.564 86.7446 156.602 86.939 156.601C87.133 156.613 87.3276 156.587 87.511 156.522C87.6945 156.458 87.8631 156.357 88.0069 156.226C88.1506 156.095 88.2665 155.937 88.3476 155.76C88.4288 155.584 88.4735 155.392 88.4791 155.198C88.4848 155.004 88.4512 154.81 88.3805 154.629C88.3097 154.448 88.2032 154.283 88.0673 154.144C87.9314 154.005 87.7689 153.895 87.5895 153.82C87.4101 153.745 87.2174 153.707 87.023 153.708Z"></path><path id="Vector_19" fill="#000000" d="M129.686 153.976C129.314 154.001 128.966 154.168 128.714 154.442C128.462 154.717 128.325 155.078 128.331 155.45C128.338 155.823 128.488 156.179 128.749 156.444C129.011 156.709 129.365 156.864 129.737 156.876C129.934 156.882 130.129 156.848 130.313 156.777C130.496 156.705 130.663 156.597 130.803 156.459C130.943 156.321 131.053 156.156 131.128 155.973C131.202 155.791 131.239 155.596 131.235 155.399C131.232 155.202 131.188 155.009 131.108 154.829C131.027 154.65 130.911 154.489 130.766 154.355C130.621 154.222 130.45 154.12 130.265 154.055C130.079 153.99 129.882 153.963 129.686 153.976Z"></path></g><path id="Vector_20" fill="#ffffff" d="M123.279 113.083C123.172 112.959 123.039 112.86 122.89 112.794C122.74 112.728 122.578 112.696 122.414 112.701C121.938 112.701 121.614 112.901 121.051 113.901C119.699 116.054 118.096 118.038 116.275 119.812C111.886 123.648 106.825 125.825 97.496 124.052C92.514 123.106 85.816 120.722 81.596 117.487C81.05 117.068 80.125 115.753 79.287 115.753C74.57 115.753 87.18 126.723 103.01 126.723C111.925 126.723 118.376 123.472 122.97 114.784C123.246 114.271 123.62 113.564 123.279 113.083Z"></path><path id="Vector_21" fill="#ffffff" d="M107.893 49.122C112.628 55.922 115.493 63.815 118.269 71.622C125.353 91.562 120.779 113.904 99.969 116.288C87.208 117.75 75.207 111.693 67.4 101.7C65.6398 103.36 63.4015 104.424 61.0028 104.74C58.6041 105.056 56.1667 104.609 54.0363 103.462C51.9059 102.315 50.1908 100.527 49.1343 98.35C48.0777 96.1734 47.7333 93.7194 48.15 91.336C48.785 87.688 54.85 75.35 61.24 68.751C66.905 62.9 82.552 51.154 107.893 49.122Z"></path><path id="Vector_22" fill="#000000" d="M60.41 93.209C58.751 89.683 55.265 90.883 55.347 90.242C55.435 89.553 57.721 88.483 60.061 89.884C61.3229 90.7438 62.2456 92.0166 62.6703 93.4833C63.0951 94.95 62.9952 96.5189 62.388 97.92C61.805 99.267 60.994 99.783 60.797 99.614C60.349 99.276 61.9 96.376 60.41 93.209Z"></path><g id="Group_3"><path id="Vector_23" fill="#000000" d="M82.89 94.13C82.047 91.791 83.848 91.318 84.636 93.501C85.434 95.715 83.726 96.448 82.89 94.13Z"></path><path id="Vector_24" fill="#000000" d="M86.377 93.045C85.237 90.558 86.915 89.766 88.064 92.271C89.213 94.776 87.514 95.525 86.377 93.045Z"></path></g><g id="Group_4"><path id="Vector_25" fill="#000000" d="M111.829 84.653C110.782 82.526 112.451 81.714 113.493 83.833C114.535 85.952 112.873 86.772 111.829 84.653Z"></path><path id="Vector_26" fill="#000000" d="M115.083 83.887C114.135 81.756 115.826 80.987 116.783 83.133C117.717 85.242 116.051 86.064 115.083 83.887Z"></path></g><path id="Vector_27" fill="#000000" d="M110.136 93.178C109.346 90.592 106.202 91.909 104.342 92.442C97.359 94.393 90.526 96.41 95.927 101.262C96.6042 101.913 97.3685 102.466 98.198 102.907C99.6291 103.62 101.235 103.908 102.824 103.736C104.414 103.563 105.921 102.938 107.166 101.935C108.841 100.54 110.978 95.8 110.136 93.178ZM106.419 101.005C105.272 101.8 103.916 102.241 102.521 102.272C101.125 102.303 99.751 101.924 98.569 101.182C99.8035 100.098 101.275 99.3197 102.865 98.9082C104.455 98.4968 106.12 98.4642 107.725 98.813C107.423 99.6153 106.981 100.357 106.419 101.005Z"></path><g id="Group_5"><path id="Vector_28" fill="#000000" d="M123 61.865C121.585 59.251 119.5 59.287 116.929 59.923C99.2 63.974 102.981 66.075 98.11 68.54C96.699 69.254 94.51 68.476 92.6 69.091C89.777 69.485 78.393 72.183 75.857 75.266C71.5852 77.7534 67.5583 80.6392 63.83 83.885L64.9 85.56C68.3805 83.8598 71.6754 81.8035 74.732 79.424C75.484 85.151 82.783 87.472 88.532 88.162C89.3578 88.3486 90.2152 88.3451 91.0395 88.1518C91.8638 87.9585 92.6333 87.5803 93.29 87.046C97.656 83.563 98.479 75.046 97.544 72.208C99.122 70.895 99.663 70.736 100.699 70.645C101.984 75.92 108.947 78.022 114.361 78.672C123.061 79.7 125 65.423 123 61.865Z"></path><g id="Group_6"><path id="Vector_29" fill="#ffffff" d="M80.7935 78.427L81.6508 82.012L85.2357 81.1547L84.3784 77.5697L80.7935 78.427Z"></path><path id="Vector_30" fill="#ffffff" d="M83.5208 73.984L84.3781 77.5689L87.963 76.7116L87.1057 73.1267L83.5208 73.984Z"></path></g><g id="Group_7"><path id="Vector_31" fill="#ffffff" d="M105.858 69.2149L106.715 72.7999L110.3 71.9426L109.443 68.3577L105.858 69.2149Z"></path><path id="Vector_32" fill="#ffffff" d="M108.586 64.7729L109.443 68.3578L113.028 67.5005L112.171 63.9156L108.586 64.7729Z"></path></g></g><path id="Vector_33" fill="#000000" d="M152.522 164.154C151.964 160.669 147.683 152.099 144.156 144.595C136.493 128.302 134.515 116.383 124.181 111.224C115.112 106.638 114.744 112.199 118.422 105.924C128.163 89.309 119.014 66.182 109.241 49.624C112.227 43.31 107.298 32.686 93.149 32.105C78.762 31.525 29.079 49.196 43.083 91.487C45.422 98.987 49.073 106.576 51.915 116.381C57.953 137.568 46.635 141.551 44.515 154.993C43.515 159.544 45.471 165.734 49.788 169.255C49.817 169.975 50.706 191.736 50.945 192.874C51.694 196.804 57.323 195.808 69.123 195.72C70.3579 195.833 71.6025 195.673 72.769 195.253C73.1764 195.068 73.5291 194.78 73.7932 194.419C74.0573 194.058 74.224 193.634 74.277 193.19C74.355 192.334 73.16 176.524 73.13 176.136C90.642 175.965 109.13 175.884 126.483 173.355C126.464 180.637 127.104 187.906 128.397 195.073L129.82 194.915C129.7 189.791 128.778 178.465 128.096 173.115C131.532 172.577 130.915 172.703 131.028 172.521C131.727 170.426 132.276 168.284 132.671 166.111C138.324 170.996 140.814 173.903 144.642 173.883C145.823 173.828 146.98 173.524 148.035 172.991C149.091 172.457 150.021 171.706 150.766 170.787C151.51 169.868 152.051 168.802 152.354 167.659C152.657 166.515 152.714 165.321 152.522 164.154V164.154ZM124.322 113.335C126.25 114.554 127.95 116.1 129.346 117.904C124.49 125.471 117.29 131.241 108.846 134.33C102.096 136.792 94.002 135.794 87.251 133.599C85.9561 133.205 84.6923 132.715 83.47 132.134C82.4189 127.633 80.9111 123.252 78.97 119.057C87.485 126.779 105.693 130.766 115.262 124.671C121.262 120.912 124.475 114.713 124.325 113.335H124.322ZM72.891 108.406C75.0914 110.37 77.4977 112.09 80.068 113.537C74.986 115.048 78.9 117.262 72.894 108.406H72.891ZM122.411 112.924C122.539 112.92 122.666 112.943 122.784 112.993C122.902 113.043 123.008 113.117 123.094 113.212C123.51 113.797 121.351 117.351 120.999 117.812C106.758 136.655 76.951 119.362 78.66 116.329C80.877 115.539 78.796 116.779 85.881 120.364C89.4977 122.143 93.3296 123.445 97.281 124.239C107.381 126.176 112.389 123.574 117.057 119.415C118.046 118.421 118.936 117.333 119.713 116.166C121.6 113.982 121.473 112.924 122.414 112.924H122.411ZM121.611 111.95C120.996 112.281 120.514 112.813 120.246 113.458C119.573 114.526 118.831 115.549 118.025 116.52C113.09 123.386 105.287 124.836 97.061 123.037C92.108 121.929 86.193 119.863 82.153 116.763C82.111 116.731 81.147 115.756 80.869 115.526C84.101 114.337 80.86 114.666 88.253 116.707C96.924 119.1 108.279 117.135 114.819 110.547C117.154 110.569 119.462 111.046 121.615 111.95H121.611ZM56.058 85.9C58.7798 84.6934 61.8564 84.5574 64.674 85.519C66.848 86.272 67.966 87.372 68.219 87.129C68.381 87.016 67.878 85.929 66.348 84.798C65.4976 83.8535 64.8525 82.7428 64.4535 81.5362C64.0545 80.3295 63.9103 79.0532 64.03 77.788C65.415 66.346 88.119 60.052 98.264 56.71C101.864 55.466 106.115 54.135 108.406 51.029C143.966 116.629 90.553 130.174 68.341 101.289C68.6465 100.686 68.8473 100.036 68.935 99.366C69.011 98.621 68.888 98.213 68.751 98.198C68.328 98.131 67.951 100.68 65.089 102.522C64.194 101.415 62.428 100.162 61.601 101.246C61.031 101.985 61.686 102.712 62.236 103.706C61.1464 103.979 60.0205 104.078 58.9 104C59.0039 103.425 59.2834 102.897 59.7 102.487C61.8 100.205 57.314 98.958 55.723 103.133C48.366 99.546 49.234 88.829 56.058 85.9ZM72.108 192.91C71.921 193.71 71.364 193.485 55.936 193.594C54.773 193.594 53.308 193.428 53.07 192.394C53.037 192.265 52.111 177.249 51.655 170.517C56.967 173.361 65.408 171.334 70.782 168.488C71.483 182.626 72.17 192.544 72.108 192.91ZM129.664 171.018C129.624 171.118 129.705 171.082 129.342 171.136C111.014 173.944 90.513 174.015 72.999 174.465C72.813 172.03 72.632 169.712 72.456 167.528C84.022 160.395 86.637 147.185 83.856 133.828C89.2622 136.332 95.15 137.625 101.108 137.618C111.395 137.41 123.461 130.406 130.186 119.028C133.967 124.461 135.117 129.896 139.498 139.77C137.299 142.946 134.712 145.835 131.798 148.37C129.162 139.964 123.673 135.205 123.505 135.37C122.98 135.89 137.089 147.578 129.664 171.018ZM149.078 169.67C144.436 175.514 138.887 169.191 132.944 164.429C133.66 159.474 133.39 154.427 132.15 149.577C132.32 149.826 137.365 146.888 140.25 141.447C149.2 161.2 152.842 165.011 149.078 169.67V169.67Z"></path><path id="Vector_34" fill="#ffffff" d="M56.592 103.441C57.417 101.385 59.179 101.077 59.292 101.408C59.405 101.739 57.661 102.469 57.922 105.197C58.228 108.381 60.868 108.916 62.494 107.742C65.537 105.823 62.068 102.164 62.338 101.812C62.838 101.156 67.902 105.503 64.116 108.972C60.085 112.666 54.605 108.387 56.592 103.441Z"></path><g id="Group_8"><path id="Vector_35" fill="#ffffff" d="M106.271 139.327C107.449 139.527 107.31 138.137 110.929 136.368C110.44 141.446 109.684 141.237 109.045 143.189C108.933 143.963 108.593 144.686 108.07 145.267C106.278 143.855 104.663 142.232 103.261 140.432C102.879 139.942 101.376 138.317 102.8 138.443C103.926 138.542 105.133 139.131 106.271 139.327Z"></path><path id="Vector_36" fill="#ffffff" d="M104.7 126.879C107.741 131.544 112.105 133.138 109.121 135.754C108.337 136.511 107.406 137.099 106.386 137.482C104.894 137.342 103.429 136.992 102.035 136.444C101.361 136.003 101.278 135.87 102.992 130.532C103.372 129.351 103.907 126.352 104.7 126.879Z"></path><path id="Vector_37" fill="#000000" d="M110.761 133.788C110.522 132.773 109.775 132.175 108.644 130.957C108.465 130.765 104.705 126.457 104.423 126.708C104.171 126.597 102.834 129.729 101.523 133.631C101.197 134.602 100.56 136.56 101.638 136.888C103.039 137.406 104.49 137.777 105.968 137.994C106.493 138.045 106.507 138.035 107.079 137.635C108.564 136.6 111.141 135.391 110.761 133.788ZM104.408 127.316C104.574 129.029 105.186 132.067 105.49 134.002C104.813 134.238 102.628 135.35 102.001 135.702C102.184 134.05 103.88 130.3 104.408 127.316V127.316ZM105.631 136.979C104.441 136.769 103.271 136.462 102.131 136.062C102.886 135.749 104.165 135.051 105.559 134.462C106.029 137.494 106.135 137.064 105.631 136.979ZM109.718 134.471C109.075 135.359 107.453 136.188 106.39 136.954C106.077 133.744 105.436 134.319 107.535 134.311C110.067 134.343 109.879 134.248 109.718 134.471ZM105.937 133.89C105.784 132.99 104.972 128.481 104.672 127.29C106.872 130.825 109.802 133.028 109.84 134.1C108.546 133.933 107.241 133.863 105.937 133.89V133.89Z"></path><path id="Vector_38" fill="#000000" d="M111.52 135.847C111.428 135.219 111.78 135.205 107.533 138.172C106.341 139.006 106.894 138.883 105.057 138.545C103.591 138.317 102.198 137.752 100.988 136.894C101.06 137.477 101.207 138.049 101.427 138.594C102.287 140.358 107.672 145.873 108.052 145.388C108.566 145.666 111.87 138.22 111.52 135.847ZM103.254 139.547C102.645 138.747 102.609 138.873 103.311 139.101C104.396 139.402 105.502 139.625 106.619 139.769C106.894 141.51 107.285 143.23 107.788 144.919C107.1 144.051 105.194 142.085 103.254 139.547V139.547ZM108.189 144.664C108.067 144.069 107.789 143.158 107.609 142.243C107.393 141.157 107.295 140.157 107.132 139.643C107.932 139.19 110.559 137.043 110.532 137.143C110.67 137.04 108.949 142.357 108.189 144.664Z"></path></g></g><g id="Group_9"><path id="Vector_39" fill="#ffffff" d="M167.021 91.258C169.591 92.328 169.41 95.506 169.004 98.105C164.738 125.426 164.382 129.396 160.24 129.171C156.785 128.983 141.395 127.842 138.501 124.649C135.167 120.972 137.365 111.57 137.821 106.999C139.069 94.499 138.979 91.284 141.586 89.139C145.298 86.085 153.694 88.252 156.575 88.564C160.181 88.8857 163.709 89.7957 167.021 91.258Z"></path><path id="Vector_40" fill="#000000" d="M168.669 91.685C166.606 89.84 162.55 89.028 159.808 88.642C150.953 87.395 147.308 86.047 143.177 87.634C138.864 89.312 138.926 93.14 138.308 98.054C135.685 120.171 133.9 125.048 141.582 127.065C145.245 127.927 159.674 131.394 162.83 129.325C164.496 128.309 164.973 126.547 166.522 118.582C167.879 111.47 169.915 96.621 169.936 95.274C169.992 94.6201 169.908 93.9617 169.69 93.3428C169.471 92.7239 169.123 92.1587 168.669 91.685V91.685ZM139.7 98.226C140.295 93.706 139.972 90.28 143.649 88.817C144.643 88.417 143.995 88.575 143.449 89.553C141.366 93.318 139.249 116.794 139.264 119.421C139.164 121.398 139.566 123.369 140.432 125.149C135.614 123.546 137.894 114.405 139.7 98.226ZM168.718 95.258C168.718 95.406 164.745 126.421 162.045 128.031C161.106 128.631 156.763 128.294 155.724 128.204C151.285 127.699 146.89 126.866 142.574 125.711C139.739 124.063 140.394 118.147 140.764 114.697C143.718 88.491 142.944 87.933 151.064 88.435C163.449 90.273 168.858 90.676 168.713 95.258H168.718Z"></path><path id="Vector_41" fill="#000000" d="M166.746 95.7C166.632 93.227 163.523 92.531 161.005 92.127C156.79 91.433 156.185 93.853 156.048 98.079C156.011 99.222 155.365 101.444 158.423 102.585C160.049 103.104 161.729 103.435 163.43 103.571C163.929 103.585 164.421 103.445 164.838 103.17C165.255 102.895 165.578 102.498 165.762 102.034C166.286 99.9577 166.615 97.8372 166.746 95.7ZM165.518 97.539C164.658 102.17 165.118 102.914 161.182 102.004C156.873 100.971 157.175 100.627 157.265 98.133C157.37 94.613 157.414 92.612 160.865 93.106C162.233 93.1565 163.573 93.4998 164.797 94.113C166.079 94.949 165.821 95.907 165.518 97.535V97.539Z"></path><g id="Group_10"><path id="Vector_42" fill="#000000" d="M159.856 95.933C159.519 95.9104 159.187 96.0204 158.931 96.2395C158.674 96.4587 158.514 96.7695 158.483 97.1056C158.453 97.4416 158.556 97.7762 158.769 98.0375C158.982 98.2989 159.29 98.4663 159.625 98.504C159.962 98.5267 160.294 98.4167 160.55 98.1976C160.807 97.9784 160.967 97.6675 160.998 97.3315C161.028 96.9954 160.925 96.6609 160.712 96.3996C160.498 96.1382 160.191 95.9707 159.856 95.933Z"></path><path id="Vector_43" fill="#000000" d="M163.211 94.939C162.874 94.9163 162.542 95.0263 162.286 95.2455C162.029 95.4646 161.869 95.7755 161.838 96.1116C161.808 96.4476 161.911 96.7821 162.124 97.0435C162.337 97.3049 162.645 97.4723 162.98 97.51C163.317 97.5327 163.649 97.4227 163.905 97.2035C164.162 96.9844 164.322 96.6735 164.353 96.3375C164.383 96.0014 164.28 95.6669 164.067 95.4055C163.854 95.1442 163.546 94.9767 163.211 94.939Z"></path><path id="Vector_44" fill="#000000" d="M162.372 98.194C162.035 98.1706 161.702 98.2802 161.445 98.4993C161.188 98.7184 161.027 99.0295 160.997 99.3659C160.966 99.7023 161.069 100.037 161.283 100.299C161.497 100.56 161.804 100.728 162.14 100.765C162.477 100.788 162.81 100.679 163.067 100.46C163.324 100.241 163.485 99.9295 163.515 99.5931C163.546 99.2567 163.443 98.9218 163.229 98.6603C163.015 98.3987 162.708 98.2313 162.372 98.194V98.194Z"></path></g><g id="Group_11"><path id="Vector_45" fill="#000000" d="M151.087 110.1C151.467 110.426 153.255 111.774 153.814 111.727C154.856 111.557 155.871 111.255 156.836 110.827C157.646 110.35 157.348 108.585 156.492 108.803C155.882 108.903 155.779 108.911 155.581 108.785C155.364 108.61 155.212 108.367 155.148 108.095C155.084 107.824 155.112 107.539 155.228 107.285C155.471 106.842 155.977 106.485 155.905 106.007C155.689 105.361 155.384 104.748 154.998 104.187C154.867 104.063 150.961 108.232 150.698 109.356C150.592 109.7 150.913 109.953 151.087 110.1ZM152.887 110.658C152.395 110.353 151.923 110.015 151.475 109.648C151.225 109.435 150.788 109.429 153.942 109.328C153.594 111.541 153.964 111.341 152.882 110.659L152.887 110.658ZM156.515 110.328C155.657 110.702 154.753 110.964 153.828 111.107C153.923 110.757 154.06 110.128 154.213 109.344C154.39 109.375 155.944 109.988 156.113 110.052C156.647 110.254 156.691 110.209 156.51 110.329L156.515 110.328ZM155.364 105.744C155.446 106.027 155.53 106.044 155.353 106.279C155.069 106.641 154.32 107.214 154.577 108.198C154.877 109.252 155.5 109.562 156.199 109.448C156.709 109.365 156.635 109.305 156.699 109.614C156.741 109.778 156.741 109.95 156.699 110.114C155.919 109.702 155.108 109.349 154.275 109.058C155.361 103.3 154.738 103.6 155.359 105.745L155.364 105.744ZM154.864 104.523C153.281 110.294 155.382 108.633 151.349 109.269C151.7 108.447 153.822 106.243 154.857 104.524L154.864 104.523Z"></path><path id="Vector_46" fill="#000000" d="M157.28 111.356C156.745 111.403 157.38 111.25 153.75 112.285C153.273 112.339 151.917 111.352 151.55 111.045C150.229 109.934 150.544 109.354 150.383 110.381C150.156 111.828 152.498 116.96 152.983 116.754C154.547 116.086 157.918 111.256 157.28 111.356ZM152.848 116.461C152.486 115.347 151.965 114.427 151.056 111.399C153.877 113.853 153.535 111.743 153.063 114.64C152.956 115.242 152.884 115.85 152.848 116.461ZM155.991 112.754C154.714 114.533 153.455 115.912 153.016 116.481C153.464 114.831 153.478 112.946 153.579 112.917C153.87 112.875 154.156 112.805 154.433 112.707C156.965 111.984 156.583 111.93 155.991 112.754Z"></path></g></g><g id="Group_12"><path id="Vector_47" fill="#ffffff" d="M140.222 155.215C140.16 160.951 140.431 172.782 146.022 174.195C146.994 174.359 147.993 174.25 148.906 173.879C149.82 173.508 150.612 172.89 151.194 172.095C152.333 170.487 153.158 168.678 153.625 166.764C155.892 159.476 157.946 153.984 157.438 148.647C157.284 147.035 156.274 148.321 147.289 146.978C145.535 146.716 143.617 145.822 141.861 145.814C139.828 145.8 140.314 146.737 140.222 155.215Z"></path><path id="Vector_48" fill="#ffffff" d="M159.025 121.108C159.754 120.494 160.364 119.752 160.825 118.918C164.057 114.413 173.135 113.667 170.125 119.857C165.377 129.635 163.289 135.016 158.561 137.857C170.027 151.236 144.547 149.138 139.243 144.122C138.627 143.533 138.18 142.79 137.949 141.97C137.719 141.149 137.713 140.282 137.933 139.458C138.152 138.635 138.589 137.886 139.198 137.289C139.807 136.692 140.564 136.27 141.392 136.067C138.672 134.883 136.707 132.159 134.98 129.747C134.075 128.685 133.526 127.366 133.413 125.975C133.428 124.59 134.574 123.138 135.949 123.309C135.017 122.442 134.259 121.406 133.715 120.256C133.452 119.676 133.357 119.035 133.441 118.404C133.524 117.773 133.783 117.178 134.187 116.686C135.46 115.373 137.627 115.819 139.374 116.36C137.722 115.586 137.484 113.052 138.703 111.695C139.363 111.061 140.196 110.637 141.097 110.477C141.999 110.317 142.927 110.428 143.765 110.795C144.919 111.325 145.989 112.021 146.941 112.861C150.808 115.838 154.843 118.592 159.025 121.108V121.108Z"></path><path id="Vector_49" fill="#000000" d="M171.959 117.6C170.89 112.215 161.654 113.7 158.607 120.385C149.639 115.085 145.572 107.806 140.646 109.211C139.692 109.399 138.829 109.901 138.195 110.637C137.56 111.373 137.191 112.301 137.146 113.272C137.119 115.33 137.86 113.742 135.278 114.402C132.514 115.057 130.957 119.153 134.484 122.771C133.9 123.05 133.394 123.468 133.01 123.989C132.627 124.51 132.377 125.117 132.284 125.757C131.82 129.323 136.656 133.608 139.565 135.757C136.227 137.334 135.983 142.957 139.557 145.548C139.181 152.731 139.29 159.932 139.883 167.1C141.2 175.781 147.156 177.5 150.799 173.864C155.653 169.019 158.426 156.218 158.242 148.779C160.936 148.014 162.595 146.231 162.512 143.401C162.45 142.458 162.245 141.529 161.905 140.647C161.425 139.577 160.675 138.65 159.729 137.956C165.246 134.497 167.094 127.381 170.421 121.743C171.314 120.287 172.107 119.3 171.959 117.6ZM144.536 172.257C143.275 171.043 142.451 168.491 142.158 166.725C141.658 163.692 141.182 150.86 141.148 146.45C143.915 147.705 152.532 149.59 156.648 149.088C156.25 157.821 150.62 178.175 144.536 172.252V172.257ZM169.725 118.157C169.684 119.043 168.681 119.9 166.985 123.475C164.736 128.14 162.771 133.888 158.836 136.64C154.171 140.086 150.5 139.158 150.45 139.696C150.391 140.063 154.08 140.739 158.13 138.833C160.694 140.384 160.997 143.928 159.93 145.301C157.577 148.501 147.376 145.964 143.53 144.893C140.056 143.906 139.112 142.419 139.012 140.193C138.982 139.856 138.996 139.517 139.055 139.184C139.138 138.607 139.416 138.075 139.843 137.678C140.27 137.281 140.819 137.042 141.401 137C145.876 139.778 149.96 140.131 149.993 139.64C150.099 138.945 143.51 138.099 136.029 129.416C134.85 127.995 133.674 126.06 135.065 124.836C135.325 124.609 136.044 124.177 136.31 124.395C142.519 129.425 147.61 130.58 147.833 129.98C148.144 129.152 139.699 124.768 136.042 120.988C135.559 120.583 135.198 120.052 135.001 119.453C134.804 118.854 134.778 118.213 134.926 117.6C136.178 113.987 141.568 120.662 147.9 123.135C149.649 123.829 150.829 123.986 150.953 123.694C151.34 122.794 139.853 116.385 139.39 114.401C138.709 111.74 141.346 110.701 143.417 111.668C146.233 112.979 153.837 121.152 161.125 122.713C162.292 122.968 162.964 122.929 162.992 122.784C163.027 122.584 162.003 122.209 160.335 121.345C163.045 115.744 169.843 115.62 169.725 118.152V118.157Z"></path></g><g id="Group_13"><g id="Group_14"><path id="Vector_50" fill="#ffffff" d="M33.786 179.962C35.949 183.397 38.208 183.974 41.686 183.09C51.086 180.701 57.146 172.513 57.111 169.118C57.088 166.918 54.579 163.579 53.211 162.47C50.739 160.47 47.117 160.439 44.146 161.57C41.175 162.701 38.707 164.829 36.303 166.911C30.955 171.55 29.8 173.63 33.786 179.962Z"></path><path id="Vector_51" fill="#000000" d="M57.782 168.2C57.563 164.946 54.029 161.657 51.553 160.619C45.853 158.163 32.107 166.046 30.783 173.602C30.436 177.289 33.868 186.602 43.409 183.534C49.519 181.524 58.392 174.592 57.782 168.2ZM50.02 161.972C51.627 163.129 50.558 166.089 49.593 167.802C47.171 172.134 36.234 179.273 33.229 175.297C29.932 170.88 43.382 160.372 50.02 161.976V161.972ZM33.179 176.694C34.587 177.8 36.836 177.662 38.572 177.246C40.334 179.246 40.778 179.054 41.744 181.846C37.248 182.865 34.9 180.894 33.179 176.694ZM43.031 181.463C40.825 178.676 41.687 179.776 40.165 176.749C42.0233 175.989 43.772 174.984 45.365 173.762C47.93 176.489 47.265 174.946 48.973 178.234C47.1466 179.573 45.1479 180.659 43.031 181.463ZM50.114 177.368C47.086 174.637 48.237 175.244 46.674 172.761C48.1769 171.647 49.4694 170.274 50.491 168.707C51.2439 169.147 51.9591 169.649 52.629 170.207C53.388 170.942 54.038 172.19 54.497 172.673C53.3032 174.468 51.8225 176.054 50.114 177.368V177.368ZM55.28 171.176C54.5329 170.725 53.8172 170.224 53.138 169.676C52.38 168.916 51.708 167.655 51.248 167.188C51.9068 165.838 52.1198 164.314 51.856 162.836C54.95 164.945 56.74 167.7 55.28 171.176Z"></path></g><g id="Group_15"><path id="Vector_52" fill="#ffffff" d="M167.333 80.131C170.07 76.746 169.026 74.964 167.011 55.953C166.812 54.0887 165.931 52.3637 164.538 51.1088C163.145 49.8538 161.338 49.1574 159.463 49.153C158.892 49.153 160.363 49.015 140.053 51.167C138.05 51.3803 136.214 52.3801 134.948 53.9465C133.681 55.5129 133.089 57.5179 133.3 59.521C135.4 79.37 134.894 80.421 137.763 82.983C138.553 83.6918 139.483 84.2268 140.493 84.5532C141.503 84.8797 142.57 84.9903 143.625 84.878C162.806 82.851 164.687 83.4 167.333 80.131Z"></path><path id="Vector_53" fill="#000000" d="M169.552 74.5L167.58 55.893C167.35 53.7395 166.274 51.7654 164.59 50.4041C162.906 49.0427 160.75 48.4054 158.596 48.632L139.996 50.603C137.843 50.8338 135.869 51.9093 134.508 53.5935C133.146 55.2778 132.509 57.4332 132.735 59.587C134.751 78.607 134.179 80.84 137.694 83.687C141.194 86.514 142.863 85.545 162.294 83.487C164.447 83.2553 166.421 82.179 167.781 80.4942C169.142 78.8094 169.779 76.6537 169.552 74.5V74.5ZM143.033 51.88C160.224 50.058 158.966 50.18 159.463 50.18C161.086 50.1829 162.65 50.7846 163.856 51.8697C165.062 52.9547 165.826 54.4469 166 56.06L167.666 71.784C167.492 73.3075 166.805 74.7265 165.717 75.8072C164.629 76.8878 163.206 77.5657 161.681 77.729L147.406 79.242C146.526 79.3354 145.637 79.2546 144.789 79.0041C143.94 78.7536 143.15 78.3384 142.462 77.7822C141.774 77.2261 141.203 76.5398 140.78 75.7626C140.358 74.9855 140.093 74.1327 140 73.253C138.428 58.418 137.623 56.907 139.947 54.032C140.749 53.0343 141.82 52.2874 143.033 51.88V51.88ZM162.123 81.9C133.344 84.951 137.329 87.893 134.312 59.419C134.135 57.7234 134.621 56.0251 135.67 54.6811C136.719 53.337 138.248 52.452 139.936 52.212C135.793 55.823 137.228 59.212 138.73 73.387C138.937 75.3518 139.864 77.1705 141.331 78.4934C142.799 79.8163 144.703 80.5498 146.679 80.553C147.296 80.553 146.279 80.641 161.815 78.994C163.099 78.86 164.332 78.4166 165.408 77.7016C166.483 76.9867 167.369 76.0215 167.99 74.889C168.11 76.5898 167.565 78.2707 166.471 79.5783C165.377 80.8858 163.818 81.7181 162.123 81.9V81.9Z"></path><path id="Vector_54" fill="#000000" d="M154.1 75.5C153.9 75.343 150.874 72.726 147.734 70.028C147.571 69.888 147.486 70.1 149.423 67.513C149.55 67.343 149.456 67.375 149.883 67.745C153.969 71.275 153.556 71.035 153.732 70.799C156.698 66.823 156.742 66.76 156.849 66.625L159.215 68.654L154.1 75.5Z"></path><path id="Vector_55" fill="#000000" d="M149.149 64.109L146.785 62.082L151.885 55.25L158.347 60.811L156.48 63.301C155.809 62.727 153.469 60.71 152.474 59.849C152.305 59.7 150.315 62.621 149.149 64.109Z"></path><path id="Vector_56" fill="#000000" d="M152.753 63.084L155.125 65.125L153.243 67.643L150.878 65.6L152.753 63.084Z"></path><path id="Vector_57" fill="#000000" d="M145.416 63.923L147.755 65.939L145.903 68.413L143.575 66.398L145.416 63.923Z"></path><path id="Vector_58" fill="#000000" d="M158.229 64.8C160.284 62.052 160.068 62.263 160.168 62.349C162.568 64.41 162.512 64.274 162.389 64.437C160.489 66.959 160.638 66.887 160.495 66.764C159.434 65.846 158.347 64.923 158.229 64.8Z"></path></g><g id="Group_16"><path id="Vector_59" fill="#ffffff" d="M148.466 36.478C145.332 21.027 145.64 19.095 142.209 16.822C141.379 16.2684 140.447 15.885 139.468 15.694C138.489 15.5029 137.481 15.508 136.504 15.709C121.052 18.843 119.121 18.536 116.847 21.966C114.628 25.315 115.547 26.749 118.747 42.507C119.094 44.2218 120.022 45.7644 121.374 46.8745C122.727 47.9845 124.42 48.594 126.17 48.6C127.255 48.6 126.587 48.671 142.532 45.437C144.507 45.0355 146.241 43.8662 147.354 42.1861C148.467 40.5061 148.867 38.4529 148.466 36.478Z"></path><path id="Vector_60" fill="#000000" d="M149.027 36.365C146.127 22.056 146.378 18.897 142.527 16.345C138.772 13.856 136.644 15.097 121.556 18.157C120.504 18.3694 119.505 18.787 118.615 19.3861C117.725 19.9851 116.962 20.7537 116.369 21.6479C115.777 22.5422 115.366 23.5445 115.161 24.5976C114.956 25.6506 114.961 26.7337 115.175 27.785L118.183 42.62C118.56 44.4651 119.561 46.1238 121.018 47.3163C122.476 48.5088 124.3 49.1621 126.183 49.166C127.355 49.166 126.765 49.213 142.644 45.993C143.696 45.7805 144.695 45.3629 145.585 44.7639C146.475 44.1649 147.239 43.3963 147.831 42.5021C148.424 41.6079 148.835 40.6056 149.04 39.5526C149.245 38.4995 149.241 37.4163 149.027 36.365V36.365ZM123.651 19.354C137.713 16.503 137.087 16.575 138.015 16.575C139.532 16.5774 141.001 17.103 142.175 18.0631C143.349 19.0232 144.156 20.359 144.46 21.845L147.107 34.9C146.952 36.3583 146.336 37.7293 145.35 38.8145C144.363 39.8997 143.057 40.6427 141.62 40.936L130.6 43.172C129.712 43.3524 128.798 43.3561 127.909 43.1828C127.02 43.0096 126.174 42.6629 125.419 42.1625C124.664 41.6621 124.016 41.0179 123.51 40.2666C123.004 39.5153 122.651 38.6717 122.472 37.784L120.231 26.76C119.941 25.3223 120.116 23.8298 120.731 22.4984C121.346 21.1669 122.369 20.0657 123.651 19.354V19.354ZM146.505 41.622C144.498 44.649 142.97 44.307 127.495 47.443C125.785 47.788 124.009 47.4407 122.555 46.4772C121.101 45.5138 120.089 44.0129 119.741 42.304L116.732 27.47C116.398 25.8298 116.703 24.1242 117.583 22.7008C118.464 21.2775 119.854 20.2436 121.471 19.81C120.545 20.726 119.861 21.8582 119.481 23.1045C119.101 24.3508 119.038 25.672 119.296 26.949L121.532 37.973C121.891 39.7458 122.851 41.3403 124.25 42.487C125.648 43.6336 127.4 44.262 129.209 44.266C130.281 44.266 129.822 44.303 141.809 41.871C143.086 41.6115 144.278 41.0382 145.278 40.2029C146.278 39.3675 147.054 38.2963 147.537 37.086C147.762 38.6734 147.395 40.2882 146.505 41.622V41.622Z"></path><path id="Vector_61" fill="#000000" d="M138.39 30.832L137.311 25.446L138.394 25.229L139.472 30.615L138.39 30.832Z"></path><path id="Vector_62" fill="#000000" d="M126.092 34.958L123.771 35.423L122.693 30.037C124.564 29.662 126.565 28.902 126.937 30.761C126.983 30.9916 126.964 31.2305 126.883 31.4511C126.801 31.6716 126.659 31.8651 126.474 32.01C126.811 32.1178 127.099 32.3402 127.289 32.6387C127.478 32.9371 127.557 33.2925 127.512 33.6432C127.466 33.9938 127.299 34.3174 127.04 34.5577C126.781 34.7979 126.445 34.9395 126.092 34.958V34.958ZM125.023 30.546L123.963 30.758L124.212 32L125.271 31.788C125.363 31.7832 125.452 31.7587 125.534 31.7163C125.615 31.6738 125.687 31.6142 125.743 31.5417C125.799 31.4692 125.84 31.3853 125.861 31.2959C125.882 31.2065 125.883 31.1136 125.865 31.0235C125.847 30.9334 125.81 30.8482 125.756 30.7738C125.703 30.6993 125.633 30.6374 125.553 30.592C125.474 30.5467 125.385 30.5192 125.293 30.5112C125.202 30.5033 125.11 30.5151 125.023 30.546ZM124.401 32.946L124.666 34.27C125.735 34.056 126.547 34.038 126.386 33.233C126.245 32.524 125.718 32.681 124.4 32.944L124.401 32.946Z"></path><path id="Vector_63" fill="#000000" d="M131.092 33.957L130.017 34.172C129.46 31.391 130.035 32.532 127.272 29.12L128.448 28.884L129.919 30.848L130.504 28.473L131.68 28.237C130.443 32.452 130.535 31.175 131.092 33.957Z"></path><path id="Vector_64" fill="#000000" d="M135.828 33.009L133.507 33.474L132.429 28.087C134.3 27.713 136.301 26.953 136.673 28.811C136.719 29.0418 136.7 29.2808 136.618 29.5015C136.537 29.7222 136.395 29.9159 136.21 30.061C136.547 30.1688 136.835 30.3913 137.025 30.6897C137.214 30.9881 137.293 31.3436 137.248 31.6942C137.202 32.0448 137.035 32.3685 136.776 32.6087C136.517 32.8489 136.181 32.9906 135.828 33.009V33.009ZM134.758 28.597L133.699 28.809L133.947 30.049L135.007 29.837C135.1 29.8342 135.191 29.8111 135.275 29.7694C135.358 29.7276 135.431 29.6682 135.489 29.5953C135.547 29.5223 135.588 29.4376 135.61 29.3471C135.632 29.2565 135.634 29.1623 135.615 29.071C135.597 28.9797 135.559 28.8935 135.504 28.8184C135.449 28.7433 135.378 28.6812 135.296 28.6364C135.214 28.5915 135.124 28.565 135.031 28.5587C134.938 28.5525 134.845 28.5665 134.758 28.6V28.597ZM134.137 30.997L134.402 32.321C135.47 32.107 136.283 32.089 136.122 31.284C135.98 30.574 135.454 30.731 134.137 31V30.997Z"></path><path id="Vector_65" fill="#000000" d="M142.392 27.068L143.282 31.517L142.2 31.734L141.309 27.285L139.86 27.575L139.672 26.637L143.652 25.837L143.84 26.775L142.392 27.068Z"></path></g><g id="Group_17"><path id="Vector_66" fill="#ffffff" d="M89.432 5.26101C84.657 6.51301 82.919 12.667 82.255 17.554C80.434 30.965 79.772 31.786 99.984 34.66C101.999 34.9771 104.058 34.4827 105.71 33.285C107.362 32.0874 108.472 30.2842 108.797 28.27C110.903 13.989 110.953 14.181 110.822 13.224C110.584 11.5 108.229 8.44201 106.943 7.67901C105.056 6.56001 92.529 4.44901 89.432 5.26101Z"></path><path id="Vector_67" fill="#000000" d="M109.947 9.355C107.294 5.8 104.721 6.181 91.8 4.31C89.6565 4.00181 87.4782 4.55661 85.7433 5.85265C84.0084 7.14869 82.8585 9.08009 82.546 11.223L80.692 24C80.3844 26.1434 80.9394 28.3214 82.2353 30.0562C83.5313 31.791 85.4623 32.941 87.605 33.254C100.805 35.165 102.972 36.154 106.442 33.563C110.083 30.842 109.705 27.725 111.487 15.412C111.643 14.3507 111.588 13.2689 111.324 12.2293C111.059 11.1896 110.591 10.2126 109.947 9.355V9.355ZM84.116 11.455C84.2395 10.6 84.5302 9.77777 84.9716 9.03521C85.413 8.29265 85.9964 7.64435 86.6884 7.12735C87.3805 6.61035 88.1676 6.2348 89.0049 6.02214C89.8422 5.80949 90.7131 5.76391 91.568 5.888L102.834 7.519C104.154 8.15717 105.237 9.19876 105.926 10.4931C106.615 11.7875 106.875 13.2674 106.667 14.719C105.376 23.637 105.625 26.238 102.635 28.472C99.645 30.706 97.441 29.76 88.304 28.438C86.8533 28.228 85.5071 27.5614 84.4607 26.535C83.4142 25.5085 82.7219 24.1754 82.484 22.729L84.116 11.455ZM109.916 15.19C108.016 28.304 108.409 30.118 105.493 32.29C102.553 34.49 100.793 33.556 87.837 31.68C86.2403 31.4471 84.7847 30.6363 83.7464 29.4012C82.708 28.1662 82.1592 26.5929 82.204 24.98C84.47 29.718 88.216 29.388 97.386 30.71C98.4063 30.8604 99.4463 30.8069 100.446 30.5527C101.445 30.2985 102.385 29.8486 103.209 29.229C106.384 26.857 106.159 24.907 107.614 14.849C107.799 13.5681 107.664 12.2614 107.222 11.0451C106.78 9.82891 106.043 8.74091 105.079 7.878C106.642 8.28904 107.999 9.26141 108.891 10.6094C109.782 11.9575 110.146 13.5867 109.913 15.186L109.916 15.19Z"></path><path id="Vector_68" fill="#000000" d="M102.741 17.273C102.68 16.1837 102.388 15.1199 101.885 14.1518C101.382 13.1837 100.679 12.3334 99.823 11.657C98.9669 10.9807 97.9771 10.4938 96.9188 10.2285C95.8606 9.96324 94.7581 9.92557 93.6842 10.118C92.6103 10.3105 91.5895 10.7287 90.6893 11.345C89.7891 11.9613 89.0299 12.7617 88.462 13.6932C87.8941 14.6247 87.5304 15.6662 87.3949 16.7487C87.2594 17.8313 87.3552 18.9302 87.676 19.973C90.256 28.673 103.305 26.359 102.741 17.273ZM100.088 17.151C98.027 16.9 97.988 16.928 97.951 16.796C97.7728 16.2112 97.4146 15.6975 96.9275 15.328C96.4404 14.9585 95.8492 14.752 95.238 14.738C94.7459 14.7233 94.2579 14.8313 93.8179 15.0522C93.378 15.2731 92.9999 15.6001 92.7178 16.0035C92.4357 16.407 92.2584 16.8743 92.202 17.3634C92.1455 17.8525 92.2116 18.3479 92.3944 18.805C92.5771 19.2622 92.8708 19.6666 93.2488 19.982C93.6268 20.2974 94.0774 20.5137 94.5599 20.6115C95.0424 20.7093 95.5417 20.6855 96.0127 20.5423C96.4837 20.3991 96.9117 20.1409 97.258 19.791C98.038 19.02 97.031 19.021 100.158 19.457C99.912 20.3057 99.4258 21.0652 98.758 21.644C97.9391 22.3878 96.9097 22.8592 95.8116 22.9934C94.7135 23.1276 93.6008 22.9179 92.6269 22.3932C91.653 21.8686 90.8658 21.0547 90.3738 20.0639C89.8819 19.073 89.7093 17.954 89.88 16.861C90.842 10.769 99.689 10.955 100.473 17.151C100.485 17.226 100.45 17.2 100.088 17.151Z"></path></g><g id="Group_18"><path id="Vector_69" fill="#ffffff" d="M145.859 183.019C148.239 186.132 154.546 191.941 158.702 192.267C174.688 193.524 191.51 169.512 187.117 159.149C185.842 156.558 179.564 151.708 177.391 150.538C165.013 143.97 145.758 161.974 144.042 175.723C143.659 178.3 144.312 180.923 145.859 183.019Z"></path><path id="Vector_70" fill="#000000" d="M187.692 159.06C186.967 157.61 185.911 156.352 184.608 155.387C181.544 152.622 177.626 149.029 173.478 148.694C161.773 147.119 148.921 159.632 144.615 170.975C143.303 174.089 143.082 177.554 143.986 180.81C146.078 185.41 153.237 191.339 156.82 192.497C158.71 193.139 161.933 192.925 164.046 192.443C179.33 188.645 191.494 167.831 187.692 159.06ZM186.065 166.46C183.975 165.605 184.336 165.54 182.745 164.046C183.798 160.313 183.551 158.106 183.009 156.352C185.3 158.453 187.623 159.82 186.065 166.46ZM145.529 180.246C142.038 167.802 159.79 148.329 173.277 150.346C176.166 150.619 179.021 152.822 181.223 154.746C187.609 165.838 164.793 191.731 150.923 186.596C148.714 184.865 146.88 182.705 145.529 180.246V180.246ZM152.859 188.138C155.274 188.621 157.772 188.483 160.119 187.738C161.658 188.838 162.17 188.507 163.784 190.596C158.315 192.038 155.7 190.224 152.859 188.138ZM165.189 190.172C163.173 188.834 163.312 189.312 161.595 187.198C164.207 186.052 166.655 184.563 168.874 182.771C170.374 183.782 170.584 182.993 173.129 185.63C170.769 187.598 168.081 189.135 165.189 190.172V190.172ZM174.189 184.749C171.164 183.279 172.266 183.941 170.053 181.807C172.587 179.649 174.899 177.242 176.953 174.622C179.206 175.85 178.763 174.904 181.094 177.163C179.108 179.961 176.79 182.508 174.191 184.749H174.189ZM181.789 176.149C178.831 174.942 179.611 174.825 177.86 173.421C179.698 170.957 181.192 168.254 182.301 165.386C183.658 165.799 184.855 166.62 185.73 167.736C184.841 170.721 183.512 173.556 181.787 176.149H181.789Z"></path><path id="Vector_71" fill="#000000" d="M150.7 183.171C162.112 190.532 185.986 164.202 177.845 155.155C172.615 149.211 161.663 154.631 156.286 160.291C154.517 162.155 156.772 160.137 158.606 158.771C169.568 150.7 178.07 152.855 178.196 159.352C178.462 169.84 163.91 183.431 154.929 183.285C146.954 183.227 146.252 173.594 153.234 164.091C154.639 162.235 156.651 160.045 154.775 161.785C148.434 167.643 144.2 178.927 150.7 183.171Z"></path><path id="Vector_72" fill="#000000" d="M158.5 170.6C155.821 167.837 156.089 168.014 155.963 168.136C152.463 171.522 152.673 171.284 152.635 171.396C151.945 173.405 151.735 173.758 151.835 173.858C157.166 179.373 156.707 178.97 156.835 178.93C159.421 178.13 159.242 178.218 159.353 178.111C166.441 171.264 166.034 171.694 166.077 171.569C166.805 169.443 166.965 169.207 166.867 169.107C163.309 165.432 163.567 165.786 163.699 165.66C166.699 162.774 166.942 162.409 167.037 162.51C168.797 164.35 168.702 164.161 168.591 164.268C166.944 165.85 166.944 165.807 167.009 165.874C169.697 168.643 169.418 168.458 169.549 168.332C173.057 164.939 172.835 165.19 172.878 165.064C173.728 162.589 173.739 162.68 173.662 162.599C169.332 158.138 168.794 157.408 168.702 157.508C167.9 157.842 167.071 158.105 166.223 158.292C166.085 158.335 166.508 157.966 159.51 164.715C159.39 164.83 159.482 164.66 158.598 167.202C158.553 167.33 158.308 167.027 161.822 170.653C161.922 170.753 161.763 170.789 158.556 173.891C158.437 174.006 158.613 174.091 156.883 172.315C156.756 172.185 158.631 170.733 158.5 170.6Z"></path></g><g id="Group_19"><path id="Vector_73" fill="#ffffff" d="M18.369 71.933C22.378 74.495 28.612 77.303 32.486 77.311C33.2811 77.2785 34.069 77.1479 34.832 76.922C50.571 72.8 59.2 42.968 50.909 35.375C49.8579 34.4855 48.6456 33.8065 47.338 33.375C43.13 31.521 38.938 29.602 34.701 30.475C17.532 33.992 8.43601 65.583 18.369 71.933Z"></path><path id="Vector_74" fill="#000000" d="M49.692 33.824C49 33.46 42.819 30.546 39.092 29.887C22.552 26.835 8.162 58.31 15.639 69.727C18.227 73.678 25.386 76.554 30.039 77.566C48.261 81.6 62.422 40.567 49.692 33.824ZM52.547 43.152C50.229 42.992 50.56 42.808 48.541 41.872C48.205 34.323 44.835 33.637 46.819 34.53C49.188 35.615 51.935 36.294 52.547 43.152ZM18.526 70.6C12.709 65.721 14.473 47.926 25.259 37.134C27.8657 34.3767 31.2293 32.4513 34.927 31.6C37.827 30.935 41.309 32.158 44.069 33.317C53.841 42.041 40.011 74.574 24.849 74.041C22.6112 73.1513 20.4883 71.996 18.526 70.6V70.6ZM27.232 74.92C29.7357 74.6121 32.1205 73.675 34.164 72.196C35.927 72.74 36.434 72.304 38.648 73.796C33.777 76.947 30.7 76.045 27.232 74.919V74.92ZM39.877 72.93C37.489 72.281 37.758 72.688 35.424 71.194C37.5953 69.239 39.4966 67.0037 41.078 64.547C42.816 65.032 42.79 64.2 46.136 65.957C44.4758 68.6309 42.357 70.991 39.877 72.929V72.93ZM46.885 64.759C43.448 64.302 44.566 64.501 41.916 63.229C43.6869 60.3149 45.1609 57.2304 46.316 54.022C48.379 54.396 48.229 53.741 51.161 55.16C50.1286 58.5203 48.6928 61.7431 46.885 64.758V64.759ZM51.505 53.951C50.8151 53.9242 50.1283 53.8433 49.451 53.709C48.515 53.443 47.451 52.802 46.806 52.563C47.8008 49.5754 48.3835 46.4661 48.538 43.321C49.9905 43.2861 51.4188 43.6976 52.63 44.5C52.7268 47.6884 52.3477 50.8734 51.505 53.95V53.951Z"></path><path id="Vector_75" fill="#000000" d="M21.54 69.873C22.4933 70.477 23.5709 70.8574 24.692 70.9857C25.8132 71.1141 26.9489 70.987 28.014 70.614C42.252 66.3 52.167 33.569 36.8 33.83C27.865 34.045 20.841 47.454 21.251 47.662C21.551 47.821 24.042 41.906 30.457 37.147C34.29 34.328 38.213 34.414 40.363 35.726C43.493 37.575 43.763 43.626 43.079 47.449C41.7782 53.7433 38.9108 59.6079 34.742 64.5C24.7 75.941 14.408 68.2 19.86 51.412C20.647 49.106 21.252 47.887 21.16 47.841C20.449 47.481 13.133 64.214 21.54 69.873Z"></path><path id="Vector_76" fill="#000000" d="M33.7 40.285C33.1801 40.0947 32.6479 39.94 32.107 39.822C31.063 41.893 29.427 46.707 27.663 50.263C27.597 50.363 23.108 58.497 22.397 60.45C23.816 60.983 23.565 60.864 23.772 61.04C22.637 63.076 23.304 65.689 24.808 61.84C25.3387 62.2213 25.9111 62.541 26.514 62.793C24.798 66.404 26.826 65.734 27.752 63.156C33.49 64.199 35.146 55.744 33.039 51.904C37.739 51.804 39.696 46.523 37.085 43.073C38.14 41.573 37.938 39.993 37.557 39.954C37.157 39.9 36.62 41.166 36.177 42.108C34.64 40.697 34.693 41.181 34.934 40.716C36.267 38.158 35.04 37.564 33.7 40.285ZM25.541 59.2C26.3485 56.4186 27.351 53.6975 28.541 51.057C29.7682 51.5293 30.844 52.3264 31.653 53.363C34.187 57.448 31.41 65.328 25.541 59.2ZM36.809 45.7C37.0295 46.2189 37.1059 46.7878 37.0301 47.3465C36.9543 47.9052 36.7291 48.4332 36.3783 48.8746C36.0275 49.316 35.5641 49.6546 35.0369 49.8546C34.5097 50.0546 33.9383 50.1087 33.383 50.011C32.1545 49.7283 30.9815 49.2434 29.912 48.576L29.8 48.8C29.7 48.738 32.414 44.436 33.351 42.885C34.855 43.56 36.232 44.229 36.809 45.7Z"></path></g><g id="Group_20"><path id="Vector_77" fill="#ffffff" d="M22.079 105.878C20.279 106.788 14.85 110.311 13.679 111.927C7.641 120.248 20.715 146.771 36.607 147.647C37.3613 147.712 38.1207 147.684 38.868 147.563C42.321 146.845 50.148 141.808 52.025 138.452C58.44 126.981 38.568 97.527 22.079 105.878Z"></path><path id="Vector_78" fill="#000000" d="M27.869 103.706C23.811 103.553 19.597 106.581 16.298 108.916C14.9207 109.699 13.75 110.799 12.883 112.125C8.974 118.839 15 136.777 27.744 145.1C34.737 149.541 40.773 149.947 50.091 141.534C51.2017 140.641 52.1164 139.528 52.778 138.266C57.77 125.9 42.088 103.482 27.869 103.706ZM17.74 110.037C16.7927 112.418 16.5728 115.026 17.108 117.532C15.421 118.779 15.729 118.91 13.608 119.493C12.869 112.951 15.214 111.861 17.74 110.037ZM13.788 120.768C14.7685 119.789 16.0244 119.132 17.388 118.885C18.133 121.794 19.2704 124.589 20.769 127.191C18.939 128.335 19.622 128.567 16.643 129.385C15.269 126.67 14.3068 123.766 13.788 120.768V120.768ZM17.195 130.449C19.717 128.529 19.517 129.256 21.506 128.461C23.1969 131.239 25.1621 133.841 27.372 136.227C24.726 138.237 25.617 137.707 23.021 138.604C20.7586 136.131 18.804 133.392 17.2 130.449H17.195ZM23.949 139.581C26.749 137.297 26.876 138.081 28.406 137.298C30.3527 139.292 32.5556 141.018 34.957 142.431C33.057 144.276 33.257 143.824 31.127 144.903C28.4408 143.564 26.0112 141.762 23.949 139.581V139.581ZM32.44 145.481C34.247 143.636 34.697 144.021 36.327 143.13C38.5192 144.124 40.9278 144.544 43.327 144.353C40.279 146.075 37.544 147.51 32.44 145.478V145.481ZM51.954 135.897C51.198 138.903 48.203 141.185 45.386 143.079C42.6807 143.703 39.8477 143.464 37.286 142.393C27.086 137.999 12.96 117.66 19.655 108.686C25.116 104.962 27.629 104.886 31.517 105.773C44.3 109.019 54.371 126.293 51.954 135.894V135.897Z"></path><path id="Vector_79" fill="#000000" d="M46.118 120.738C45.4629 119.708 44.6977 118.752 43.836 117.888C43.581 118.088 48.055 122.925 48.999 130.109C50.099 139.155 42.999 142.642 34.32 136.048C29.49 132.271 25.6919 127.336 23.278 121.7C21.914 118.273 21.009 112.55 23.578 110.227C25.34 108.59 28.978 107.759 33.107 109.666C40.453 113.097 43.383 118.012 43.716 117.738C44.03 117.49 35.062 106.251 26.547 107.776C12.106 110.476 27.674 139.163 41.771 140.476C49.477 141.249 53.489 132.123 46.118 120.738Z"></path><path id="Vector_80" fill="#000000" d="M34.27 125.37C34.7903 125.359 35.3011 125.229 35.7643 124.992C36.2274 124.755 36.6308 124.416 36.944 124C37.6987 122.682 38.0971 121.191 38.1 119.672C38.1 119.28 38.158 119.409 37.861 119.164C33.617 115.664 34.487 116.155 27.552 111.823C27.6676 114.499 28.0699 117.156 28.752 119.746C30.643 126.878 29.2 125.857 34.27 125.37ZM31.27 124.409C29.554 117.802 29.293 116.29 29.07 114.327C31.8173 115.95 34.3967 117.843 36.77 119.976C36.7272 121.135 36.4076 122.266 35.838 123.276C35.6259 123.519 35.3648 123.714 35.0718 123.849C34.7788 123.984 34.4606 124.056 34.138 124.059C33.191 124.244 32.2318 124.361 31.268 124.409H31.27Z"></path><path id="Vector_81" fill="#000000" d="M34.726 130.259C36.293 131.248 41.849 134.635 43.51 134.635C43.756 134.635 43.81 134.565 44.141 134.382C44.585 130.658 42.889 128.673 39.551 120.635C39.0128 121.605 38.649 122.661 38.476 123.757C37.806 127.328 36.911 126.487 30.935 127.192C32.0013 128.437 33.2861 129.476 34.726 130.259V130.259ZM34.134 128.203C35.4848 128.208 36.8204 127.919 38.048 127.355C40.367 126.088 39.064 122.355 40.359 125.529C41.904 129.291 42.885 131.319 42.909 133.193C40.279 132.166 33.7 128.228 34.134 128.2V128.203Z"></path></g><g id="Group_21"><path id="Vector_82" fill="#ffffff" d="M28.171 30.343C22.54 34.271 27.939 30.497 32.396 34.662C33.263 35.472 34.587 38.411 35.096 38.217C35.208 38.174 35.214 38.017 35.202 37.9C35.0455 36.0972 35.3704 34.2851 36.1434 32.6489C36.9164 31.0127 38.1099 29.611 39.602 28.587C40.292 28.126 40.036 27.667 39.238 27.639C37.7146 27.6319 36.2086 27.3145 34.812 26.706C33.512 25.935 31.458 23.287 30.557 21.888C30.616 25.427 30.057 29.15 27.123 31.126L28.171 30.343Z"></path><path id="Vector_83" fill="#000000" d="M40.939 27.787C40.983 27.112 36.47 27.638 34.08 25.663C31.287 23.363 30.399 19.563 29.899 19.723C29.081 19.912 31.456 26.406 27.473 30.312C26.029 31.728 24.399 32.349 24.511 32.639C24.636 33.356 30.202 31.409 33.616 37.166C34.616 38.835 35.201 40.366 35.471 40.338C36.111 40.338 34.502 34.307 38.231 30.149C39.648 28.593 41.034 28.06 40.939 27.787ZM37.545 29.53C35.7306 31.723 34.7442 34.4837 34.758 37.33C34.0532 35.7781 32.924 34.457 31.5008 33.5193C30.0775 32.5815 28.4181 32.0652 26.714 32.03C28.833 30.918 30.851 28.064 30.814 23.561C30.806 22.893 30.714 22.931 30.985 23.395C31.5754 24.5818 32.439 25.6116 33.5048 26.3998C34.5707 27.188 35.8083 27.7121 37.116 27.929C40.724 28.508 39.6 27.261 37.545 29.53Z"></path></g><g id="Group_22"><path id="Vector_84" fill="#ffffff" d="M28.82 100.781C27.573 105.095 25.156 104.727 25.711 105.546C27.3292 105.402 28.9556 105.711 30.4079 106.439C31.8602 107.167 33.0808 108.286 33.933 109.669C34.126 109.992 34.363 110.369 34.74 110.389C33.978 102.18 38.074 101.652 38.377 100.155C31.308 100.168 31.856 98.047 28.913 95.234C28.754 96.68 29.906 97.022 28.82 100.781Z"></path><path id="Vector_85" fill="#000000" d="M39.209 100.082C39.197 99.464 35.084 100.306 32.709 98.671C29.936 96.761 28.829 93.335 28.38 93.527C27.644 93.766 30.4 99.621 26.989 103.485C25.789 104.924 24.317 105.609 24.443 105.867C24.616 106.52 29.593 104.277 33.2 109.315C34.269 110.787 34.944 112.188 35.175 112.089C35.708 111.911 33.835 106.549 36.896 102.476C38.082 100.929 39.319 100.326 39.209 100.082ZM36.219 101.96C34.7214 104.128 34.032 106.752 34.271 109.376C33.6032 108.23 32.6825 107.252 31.5793 106.517C30.476 105.781 29.2193 105.307 27.905 105.131C25.784 104.886 26.216 105.721 27.641 104.044C28.4305 103.065 29.0073 101.933 29.3344 100.718C29.6616 99.5041 29.7319 98.235 29.541 96.992C29.481 96.376 29.403 96.418 29.685 96.825C30.3246 97.8721 31.2033 98.7527 32.249 99.3944C33.2948 100.036 34.4778 100.421 35.701 100.517C39.084 100.763 37.938 99.7 36.219 101.96Z"></path></g><g id="Group_23"><path id="Vector_86" fill="#ffffff" d="M92.329 155.2C88.987 153.6 86.21 154.817 83.275 156.435C75.67 160.627 82.441 172.626 89.18 177.912C95.875 183.163 102.503 177.294 102.135 170.557C101.805 164.5 95.876 156.9 92.329 155.2Z"></path><path id="Vector_87" fill="#000000" d="M102.954 169.784C101.861 164.284 96.283 154.735 89.696 153.561C86.009 153.208 76.69 156.616 79.734 166.161C82.719 175.291 92.934 185.22 99.762 178.21C102.979 175.083 103.51 172.893 102.954 169.784ZM101.279 172.827C100.118 174.427 97.162 173.356 95.45 172.385C91.113 169.946 84.016 158.989 88 156C92.4 152.73 102.912 166.148 101.279 172.827ZM86.6 155.949C85.491 157.349 85.62 159.601 86.034 161.341C83.99 163.141 84.193 163.555 81.434 164.502C80.42 160 82.406 157.656 86.6 155.949ZM81.81 165.79C84.63 163.567 83.593 164.402 86.53 162.936C87.2866 164.794 88.2871 166.542 89.505 168.136C87.565 169.952 88.526 169.919 85.024 171.736C83.6862 169.91 82.6048 167.909 81.81 165.79ZM85.887 172.883C88.613 169.872 88.044 170.993 90.503 169.454C91.6127 170.96 92.9822 172.256 94.547 173.281C94.1011 174.029 93.5997 174.742 93.047 175.415C93.047 175.581 90.894 176.977 90.576 177.277C88.7825 176.079 87.1983 174.595 85.887 172.883V172.883ZM98.456 176.839C97.6701 177.712 96.6206 178.303 95.4672 178.525C94.3139 178.746 93.1199 178.584 92.067 178.064C92.5179 177.318 93.0191 176.604 93.567 175.926C94.329 175.169 95.591 174.5 96.059 174.041C97.4069 174.702 98.93 174.919 100.409 174.66C99.8398 175.456 99.1849 176.186 98.456 176.839V176.839Z"></path></g></g></g></svg>